<?xml version="1.0" standalone="no"?>
<!DOCTYPE svg PUBLIC "-//W3C//DTD SVG 20010904//EN"
 "http://www.w3.org/TR/2001/REC-SVG-20010904/DTD/svg10.dtd">
<svg version="1.0" xmlns="http://www.w3.org/2000/svg"
 width="2500.000000pt" height="2500.000000pt" viewBox="0 0 2500.000000 2500.000000"
 preserveAspectRatio="xMidYMid meet">
<metadata>
Created by potrace 1.11, written by Peter Selinger 2001-2013
</metadata>
<g transform="translate(0.000000,2500.000000) scale(0.100000,-0.100000)"
fill="#000000" stroke="none">
<path d="M16175 21986 l-1750 -412 3 -30 c3 -34 2296 -9791 2303 -9798 2 -3
794 181 1759 408 1282 301 1756 416 1757 427 4 25 -2302 9812 -2312 9815 -5 1
-797 -183 -1760 -410z"/>
<path d="M10685 20696 l-1750 -413 1 -29 c2 -36 2294 -9786 2303 -9796 3 -4
796 179 1761 406 1753 412 1755 413 1752 437 -2 21 -2285 9747 -2298 9792 -3
9 -8 17 -12 16 -4 0 -794 -186 -1757 -413z"/>
<path d="M5192 19404 c-965 -227 -1755 -414 -1757 -416 -4 -4 2302 -9818 2308
-9825 6 -5 3509 817 3518 826 8 7 -2296 9810 -2308 9821 -4 4 -797 -179 -1761
-406z"/>
<path d="M13215 9990 c-6528 -1535 -7260 -1709 -7259 -1726 1 -45 319 -1374
328 -1374 20 -1 14541 3413 14549 3420 4 4 -65 318 -154 699 -151 643 -164
691 -183 690 -12 0 -3288 -769 -7281 -1709z"/>
<path d="M13765 7734 c-3938 -926 -7164 -1684 -7168 -1684 -16 0 -2 -19 88
-117 346 -378 815 -824 1160 -1103 37 -30 73 -60 79 -66 16 -15 265 -207 376
-290 239 -178 678 -463 920 -597 370 -205 589 -314 895 -445 251 -108 610
-241 785 -292 36 -10 119 -35 185 -55 404 -119 972 -229 1375 -265 421 -38
981 -44 1310 -14 166 15 557 62 579 70 8 2 44 9 80 14 36 5 75 11 86 14 11 2
40 7 65 11 62 10 533 120 623 146 39 11 88 25 107 30 19 6 44 14 55 18 11 5
90 31 175 59 173 56 413 143 477 173 24 10 45 19 47 19 3 0 37 15 78 34 40 18
125 56 188 84 119 53 419 206 518 266 31 18 124 73 207 122 360 213 824 558
1146 850 247 225 321 299 654 658 129 139 446 537 575 722 117 168 161 232
190 278 108 169 200 315 218 346 11 19 53 91 92 160 102 175 110 190 230 425
58 116 139 282 179 370 40 88 79 174 86 190 48 100 235 574 292 740 76 221
140 421 189 589 31 105 58 199 61 209 4 13 0 17 -18 16 -13 0 -3246 -758
-7184 -1685z"/>
</g>
</svg>
